<svg xmlns="http://www.w3.org/2000/svg" width="34" height="30" fill="none"><path stroke="#0F385B" stroke-width="1.5" d="M24 14.27v8.51c0 1.1-.9 2-2 2h-3v3.96c0 1.19-3.64-1.98-5.64-3.96H3a2 2 0 0 1-2-2V3a2 2 0 0 1 2-2h19c1.1 0 2 .9 2 2v5.61"/><path stroke="#04BBF2" stroke-linecap="round" stroke-linejoin="round" stroke-width="1.5" d="M31.42 6.85 19.4 18.87l-2.83-2.83L24 8.61l4.59-4.59 2.83 2.83Z"/><path stroke="#04BBF2" stroke-width="1.5" d="m32.03 6.18-.61.67-2.83-2.83.61-.55c.43-.42 1.11-.42 1.53 0l1.3 1.3c.42.42.42.99 0 1.41Z"/><path stroke="#04BBF2" stroke-linecap="round" stroke-linejoin="round" stroke-width="1.5" d="m15.82 19.409.75-3.36 2.83 2.83-3.58.54v-.01Z"/><path stroke="#0F385B" stroke-linecap="round" stroke-width="1.5" d="M5.5 5.5h14M5.5 10.5h14M5.5 15.5h8M5.5 20.5h6"/></svg>