<svg xmlns="http://www.w3.org/2000/svg" width="35" height="36" fill="none"><path stroke="#10385B" stroke-linecap="round" stroke-linejoin="round" stroke-miterlimit="10" stroke-width="2" d="M17.056 23.977a3.637 3.637 0 1 0 0-7.274 3.637 3.637 0 0 0 0 7.274ZM8.895 34.001a8.14 8.14 0 0 1 8.161-8.161A8.14 8.14 0 0 1 25.218 34M27.79 24.154a2.75 2.75 0 1 0 0-5.5 2.75 2.75 0 0 0 0 5.5ZM25.218 26.194a6.362 6.362 0 0 1 2.572-.532c3.46 0 6.21 2.75 6.21 6.21M7.21 24.154a2.75 2.75 0 1 0 0-5.5 2.75 2.75 0 0 0 0 5.5ZM1 31.784c0-3.46 2.75-6.21 6.21-6.21.887 0 1.685.178 2.395.444"/><path stroke="#04BBF2" stroke-linecap="round" stroke-linejoin="round" stroke-miterlimit="10" stroke-width="2" d="M10.758 14.662v-.444A6.739 6.739 0 0 1 17.5 7.477a6.739 6.739 0 0 1 6.742 6.741"/><path stroke="#04BBF2" stroke-linecap="round" stroke-linejoin="round" stroke-miterlimit="10" stroke-width="2" d="M30.806 14.218v-2.662h-2.75c-.266-1.064-.71-2.04-1.242-2.927l1.952-1.863L25.04 3.04 23.09 4.992c-.887-.532-1.863-.976-2.928-1.242V1h-5.234v2.75c-1.064.266-2.04.71-2.927 1.242L10.048 3.04 6.323 6.766l1.951 1.952c-.532.887-.976 1.863-1.242 2.927h-2.75v3.282"/></svg>