<svg xmlns="http://www.w3.org/2000/svg" width="34" height="33" fill="none"><path stroke="#04BBF2" stroke-width="1.5" d="M17 14.53a2.823 2.823 0 1 0 0-5.647 2.823 2.823 0 0 0 0 5.646Z"/><path stroke="#0F385B" stroke-linejoin="round" stroke-width="1.5" d="M17.576 32h-2.37l-.343-2.79-4.904-1.97-2.37 1.638-3.044-3.11 1.694-2.292-1.86-4.429L1.5 18.56v-4.096l2.879-.654 1.86-4.428-1.694-2.458 3.044-2.79 2.37 1.472 4.572-1.804.675-2.79h2.37M17.576 1h2.192l.63 2.79 4.241 1.805 2.204-1.473 2.823 2.779-1.573 2.469 1.728 4.429 2.679.653v4.096l-2.68.498-.276.72M17.576 32h2.192l.32-2.79.256-.11"/><path stroke="#04BBF2" stroke-linejoin="round" stroke-width="1.5" d="M30.84 23.696a6.648 6.648 0 0 1-6.644 6.642 6.532 6.532 0 0 1-3.852-1.24 6.476 6.476 0 0 1-2.414-3.232 6.383 6.383 0 0 1-.376-2.17c0-.764.132-1.528.387-2.215a6.452 6.452 0 0 1 1.827-2.734 6.535 6.535 0 0 1 2.203-1.307 6.441 6.441 0 0 1 2.225-.387 6.29 6.29 0 0 1 2.17.376 6.533 6.533 0 0 1 3.178 2.336 6.587 6.587 0 0 1 1.295 3.93Z"/><path stroke="#04BBF2" stroke-width="1.5" d="m27.507 20.797-3.864 5.114-2.768-2.214M11.475 22.267a5.923 5.923 0 0 1 5.924-5.923c1.461 0 2.8.531 3.83 1.417"/></svg>