<svg xmlns="http://www.w3.org/2000/svg" width="35" height="34" fill="none"><path stroke="#04BBF2" stroke-linecap="round" stroke-linejoin="round" stroke-width="1.5" d="m17.386 1 1.334 2.447h2.227L22.28 1h-4.895v0Z"/><path stroke="#0F385B" stroke-width="1.5" d="m5.111 21.282-3.676 3.643a.612.612 0 0 0-.004.865l7.14 7.206c.238.24.625.241.865.003l3.677-3.643a.612.612 0 0 0 .004-.865l-7.14-7.206a.612.612 0 0 0-.866-.003Z"/><path stroke="#04BBF2" stroke-width="1.5" d="M29 18c0-6.074-4.248-11-9.5-11S10 11.926 10 18M17.998 4.059h3.67c.674 0 1.224.55 1.224 1.223s-.55 1.224-1.223 1.224h-3.671c-.673 0-1.224-.55-1.224-1.224 0-.673.55-1.223 1.224-1.223Z"/><path stroke="#0F385B" stroke-linecap="round" stroke-width="1.5" d="M6.373 21.19c1.432-1.432 4.283-3.671 6.73-3.671 3.06 0 4.283 1.835 6.73 1.835 2.448 0 4.283 0 4.283 2.447 0 1.958-4.49 2.044-6.73 1.836m7.342-3.06 6.118-4.282c.404-.208 1.469-.49 2.448 0 1.223.612.611 2.447 0 3.059-.49.49-5.103 4.687-7.342 6.73-.612.612-2.325 1.836-4.283 1.836H12.49"/><path stroke="#04BBF2" stroke-linecap="round" stroke-linejoin="round" stroke-miterlimit="10" stroke-width="1.5" d="M21.124 12.272c-.56-.56-1.474-.508-1.881-.05-.356.406-.305 1.169.05 1.474.153.152.458.203.967.305.56.101.712.05.864.203.305.254.305.814.305.864-.05.356-.254.814-.61.967-.508.254-1.271.05-1.678-.56M20.26 11v.864M20.26 16.186v.813"/></svg>