<svg xmlns="http://www.w3.org/2000/svg" width="32" height="34" fill="none"><path stroke="#0F385B" stroke-width="1.5" d="M27.996 10.123v15.252c0 .974-.798 1.76-1.76 1.76H2.772c-.974 0-1.76-.786-1.76-1.76V10.123c0-.974.786-1.76 1.76-1.76h17.622l-7.755 7.755 3.32 3.32L26.893 8.505a1.73 1.73 0 0 1 1.103 1.62Z"/><path stroke="#04BBF2" stroke-linecap="round" stroke-linejoin="round" stroke-width="1.5" d="M26.729 2.014 12.626 16.117l3.318 3.319L30.047 5.332 26.73 2.014Z"/><path stroke="#04BBF2" stroke-width="1.5" d="m30.777 4.549-.716.786-3.32-3.32.715-.645a1.275 1.275 0 0 1 1.796 0l1.525 1.525c.492.493.492 1.161 0 1.654Z"/><path stroke="#04BBF2" stroke-linecap="round" stroke-linejoin="round" stroke-width="1.5" d="m15.959 19.437-4.2.622.88-3.942 3.32 3.32Z"/><path stroke="#0F385B" stroke-linecap="round" stroke-linejoin="round" stroke-width="1.5" d="M27.984 23.027H1"/><path stroke="#0F385B" stroke-linecap="round" stroke-width="1.5" d="M13.612 25.082h1.76"/><path stroke="#0F385B" stroke-width="1.5" d="M18.599 27.135h-8.213v2.346h8.213v-2.346Z"/><path stroke="#0F385B" stroke-width="1.5" d="M8.626 29.48h11.732c.974 0 1.76.787 1.76 1.76v1.174a.58.58 0 0 1-.586.586H7.452a.58.58 0 0 1-.586-.586V31.24c0-.973.786-1.76 1.76-1.76Z"/></svg>