<svg xmlns="http://www.w3.org/2000/svg" width="37" height="32" fill="none"><path stroke="#04BBF2" stroke-linecap="round" stroke-linejoin="round" stroke-width="1.5" d="M7.043 11.89a3.608 3.608 0 1 0 0-7.214 3.608 3.608 0 0 0 0 7.215ZM17.344 16.916l-5.204-2.847a8.021 8.021 0 0 0-3.853-.985H5.519c-.753 0-1.46.184-2.083.51A4.51 4.51 0 0 0 1 17.603v3.408a2.439 2.439 0 0 0 2.436 2.44v6.146c0 .515.418.933.933.933H9.42a.934.934 0 0 0 .935-.934V16.602l5.511 3.016a1.111 1.111 0 0 0 1.508-.442l.412-.752a1.111 1.111 0 0 0-.442-1.508v-.001ZM17.344 16.916l3.151-5.871"/><path stroke="#10385B" stroke-linecap="round" stroke-linejoin="round" stroke-width="1.5" d="M15.1 14.87V3.32A2.319 2.319 0 0 1 17.418 1h15.758a2.319 2.319 0 0 1 2.318 2.319v12.369a2.319 2.319 0 0 1-2.318 2.318H18.363M18.92 30.999l5.403-12.991M31.846 30.999l-5.405-12.991M18.92 5.582h12.433M24.324 9.504h7.03M24.324 13.756h7.03"/></svg>