<svg xmlns="http://www.w3.org/2000/svg" width="34" height="40" fill="none"><path stroke="#0F385B" stroke-linecap="round" stroke-linejoin="round" stroke-width="1.5" d="M15.862 10.062c-.11 0-6.39.093-6.39.093s-.13 2.412 2.485 2.891c2.616.48 3.979-.424 5.176.185 1.197.608 4.604 2.173 6.906.312 2.302-1.86 3.444-2.412 3.444-2.412L25.31 4.354l-2.206 1.365a4.817 4.817 0 0 1-3.57.61l-4.55-.998a4.822 4.822 0 0 0-3.615.638L1 12.55s.663 1.97 3.094 1.141c2.432-.829 5.378-2.818 5.378-2.818"/><path stroke="#0F385B" stroke-linecap="round" stroke-linejoin="round" stroke-width="1.5" d="m10.522 12.477-3.85 2.025S4.833 15 4.96 13.324M28.194 13.427 24.242 1.014 31.38 1 33 13.413l-4.806.014Z"/><path stroke="#0F385B" stroke-linecap="round" stroke-linejoin="round" stroke-width="1.5" d="M28.285 4.425a.719.719 0 1 0 0-1.437.719.719 0 0 0 0 1.437ZM21 18.645c-.167-2.87-2.152-5.172-4.544-5.58-2.946-.502-6.134 1.936-6.456 5.58V39"/><path stroke="#04BBF2" stroke-linecap="round" stroke-linejoin="round" stroke-width="1.5" d="M16 36.561v-9.628c0-1.068.865-1.933 1.933-1.933h13.134c1.068 0 1.933.865 1.933 1.933v10.31a1.933 1.933 0 0 1-1.933 1.932h-12.15M19.185 28.818h10.363M23.689 32.088h5.86M23.689 35.633h5.86"/></svg>