<svg xmlns="http://www.w3.org/2000/svg" width="33" height="29" fill="none"><path stroke="#10385B" stroke-linecap="round" stroke-linejoin="round" stroke-miterlimit="10" stroke-width="2" d="M29.832 27.23H3.168C1.976 27.23 1 26.263 1 25.081V8.64c0-1.182.976-2.149 2.168-2.149h26.664c1.192 0 2.168.967 2.168 2.15v16.334c0 1.29-.976 2.256-2.168 2.256ZM1 15.516h9.213M22.462 15.516H32"/><path stroke="#04BBF2" stroke-linecap="round" stroke-linejoin="round" stroke-miterlimit="10" stroke-width="2" d="M18.776 17.128h-4.552c-.542 0-1.084-.43-1.084-1.074v-1.29c0-.537.433-1.074 1.084-1.074h4.552c.542 0 1.084.43 1.084 1.074v1.29c0 .644-.542 1.074-1.084 1.074Z"/><path stroke="#10385B" stroke-linecap="round" stroke-linejoin="round" stroke-miterlimit="10" stroke-width="2" d="M23.028 6.275h-12.93V4.351c0-1.824 1.603-3.343 3.526-3.343h5.877c1.924 0 3.527 1.52 3.527 3.343v1.924Z"/></svg>