<svg xmlns="http://www.w3.org/2000/svg" width="29" height="38" fill="none"><path stroke="#10385B" stroke-linecap="round" stroke-linejoin="round" stroke-miterlimit="10" stroke-width="2" d="M27.897 23.547c0 .317-.01.635-.037.943a13.255 13.255 0 0 1-2.213 6.507A13.45 13.45 0 0 1 14.444 37c-.598 0-1.186-.037-1.765-.121a13.425 13.425 0 0 1-9.429-5.882 13.256 13.256 0 0 1-2.213-6.507 13.254 13.254 0 0 1 1.176-6.517 13.44 13.44 0 0 1 6.125-6.395c.336.7.747 1.391 1.167 2.091.047.084.103.168.159.252a16.735 16.735 0 0 0 2.418 3.035c.382.382.756.718 1.11 1.017.449.374.86.672 1.214.925.01 0 .02-.02.038-.029.093-.055.224-.149.373-.27.27-.206.532-.411.775-.626 1.56-1.307 2.633-2.604 3.156-3.314.233-.327.504-.69.774-1.102.393-.579.785-1.232 1.112-1.95a13.438 13.438 0 0 1 6.05 6.366 13.255 13.255 0 0 1 1.213 5.574v0Z"/><path stroke="#10385B" stroke-linecap="round" stroke-linejoin="round" stroke-miterlimit="10" stroke-width="2" d="M22.491 23.547c0 .317-.009.635-.028.943a17.848 17.848 0 0 1-1.559 6.507 18.035 18.035 0 0 1-4.06 5.788c-.776.14-1.579.215-2.4.215-.598 0-1.186-.037-1.765-.121a13.425 13.425 0 0 1-9.429-5.882 13.256 13.256 0 0 1-2.213-6.507 13.254 13.254 0 0 1 1.176-6.517 13.44 13.44 0 0 1 6.125-6.395c.336.7.747 1.391 1.167 2.091.047.084.103.168.159.252a16.735 16.735 0 0 0 2.418 3.035c.382.382.756.718 1.11 1.017.449.374.86.672 1.214.925.01 0 .02-.02.038-.029.093-.055.224-.149.373-.27.27-.206.532-.411.775-.626 1.56-1.307 2.633-2.604 3.156-3.314.233-.327.504-.69.774-1.102a17.969 17.969 0 0 1 2.11 4.416c.56 1.755.86 3.632.86 5.574v0Z"/><path stroke="#10385B" stroke-linecap="round" stroke-linejoin="round" stroke-miterlimit="10" stroke-width="2" d="M27.897 23.546c0 .318-.01.635-.037.943a13.256 13.256 0 0 1-2.213 6.507A13.45 13.45 0 0 1 14.444 37a12.27 12.27 0 0 1-1.765-.121 18.252 18.252 0 0 1-4.173-5.882 18.031 18.031 0 0 1-1.55-6.507 18.318 18.318 0 0 1 .83-6.517 17.98 17.98 0 0 1 1.878-4.051 16.743 16.743 0 0 0 2.418 3.034c.382.383.756.719 1.11 1.018.449.373.86.672 1.214.924.01 0 .02-.019.038-.028a3.48 3.48 0 0 0 .373-.27c.27-.206.532-.412.775-.626 1.56-1.307 2.633-2.605 3.156-3.315.233-.326.504-.69.774-1.101.393-.58.785-1.233 1.112-1.952a13.437 13.437 0 0 1 6.05 6.368 13.254 13.254 0 0 1 1.213 5.573v0ZM14.444 37V18.869M1.037 24.488H27.86"/><path stroke="#04BBF2" stroke-linecap="round" stroke-linejoin="round" stroke-miterlimit="10" stroke-width="2" d="M21.278 6.882c-.57-2.745-3.174-5.9-6.872-5.882-3.818.019-6.45 3.426-6.852 6.293-.206 1.456.177 2.735.784 3.977.336.7.747 1.39 1.167 2.09.047.085.103.169.159.253a16.738 16.738 0 0 0 2.418 3.034c.383.383.756.719 1.11 1.018.449.373.86.672 1.214.924.01 0 .02-.019.038-.028.093-.056.224-.15.373-.27.271-.206.532-.412.775-.626 1.56-1.307 2.633-2.605 3.156-3.314.233-.327.504-.691.774-1.102.393-.579.785-1.232 1.112-1.951.606-1.298.97-2.801.644-4.416v0Z"/><path fill="#04BBF2" d="M16.983 7.918a2.532 2.532 0 0 1-2.54 2.521c-1.4 0-2.539-1.13-2.539-2.52a2.548 2.548 0 0 1 2.54-2.54c1.4 0 2.54 1.13 2.54 2.54Z"/></svg>