<svg xmlns="http://www.w3.org/2000/svg" width="23" height="17" fill="#FFF"><path stroke="#fff" stroke-linecap="round" stroke-linejoin="round" d="m2.424 8.521 1.539-.38-.308-3.546-2.615.253c-.077.634-.308 4.56 2.423 7.683 2.922 3.377 6.806 3.082 7.306 3.04L11 12.7l-3.192-.38-.423 1.772M13.907 14.864c.156 0 .312.005.473.01a33.993 33.993 0 0 0 4.578-.25c1.134-.138 2.023-1.022 2.212-2.144a24.974 24.974 0 0 0 .005-8.14c-.189-1.128-1.078-2.012-2.211-2.156a32.971 32.971 0 0 0-8.085-.017c-1.145.139-2.128 1.072-2.278 2.267a31.484 31.484 0 0 0-.245 3.65v.612M18.13 1v2.79M11.813 1v2.79M21.084 7H8.566"/></svg>