<svg xmlns="http://www.w3.org/2000/svg" width="53" height="53" fill="none"><path stroke="#04BBF2" stroke-linecap="round" stroke-linejoin="round" stroke-width="2" d="M27.942 46.587a2.098 2.098 0 1 0 0-4.196 2.098 2.098 0 0 0 0 4.196ZM27.942 31.447v10.944M12.328 41.699a2.098 2.098 0 1 0 0-4.197 2.098 2.098 0 0 0 0 4.197Z"/><path stroke="#04BBF2" stroke-linecap="round" stroke-linejoin="round" stroke-width="2" d="M14.426 39.6h5.175v-8.153M43.29 41.699a2.098 2.098 0 1 0 0-4.197 2.098 2.098 0 0 0 0 4.197Z"/><path stroke="#04BBF2" stroke-linecap="round" stroke-linejoin="round" stroke-width="2" d="M41.196 39.6H36.02v-8.153"/><path stroke="#10385B" stroke-linecap="round" stroke-linejoin="round" stroke-width="2" d="M44.677 17.25a7.16 7.16 0 0 0-1.335.13 9.076 9.076 0 0 0 .275-2.207A9.172 9.172 0 0 0 34.444 6c-3.753 0-6.976 2.258-8.397 5.49a8.753 8.753 0 0 0-4.654-1.34c-4.606 0-8.38 3.537-8.768 8.043a7.066 7.066 0 0 0-3.533-.947A7.106 7.106 0 0 0 2 24.35c0 3.92 3.18 7.096 7.096 7.096h35.581a7.097 7.097 0 0 0 0-14.193v-.004Z"/></svg>