<svg xmlns="http://www.w3.org/2000/svg" width="29" height="29" fill="none"><g filter="url(#a)"><mask id="b" width="17" height="17" x="6" y="6" maskUnits="userSpaceOnUse" style="mask-type:alpha"><circle cx="14.305" cy="14.305" r="8.305" fill="#C4C4C4"/></mask><g mask="url(#b)"><path fill="#50B748" d="M39.682 28.859V16.955H-11.07V28.86c0 1.634 1.055 2.967 2.361 2.967h46.03c1.303-.002 2.36-1.329 2.36-2.967Z"/><path fill="#D1232A" d="M39.682 12.855H-11.07v4.1h50.752v-4.1Z"/><path fill="#58595B" d="M39.682-.017c0-1.77-1.059-3.212-2.362-3.212H-8.71c-1.306 0-2.361 1.439-2.361 3.212v12.872h50.753V-.017Z"/><path fill="#fff" d="M11.805 10.6c.046.388.534 1.86 1.027 1.906l3.446 6.02c.028.046.073.069.104.051.031-.017.032-.07.007-.116l-3.448-6.019c.21-.447-.827-1.61-1.136-1.842Z"/><path fill="#000" d="M11.786 10.602c.045.379.521 1.851 1.032 1.926l3.443 6.011a.136.136 0 0 0 .077.067.07.07 0 0 0 .053-.007.078.078 0 0 0 .036-.07.154.154 0 0 0-.02-.073s-3.438-5.996-3.438-6.011a.348.348 0 0 0 .027-.136c0-.533-.892-1.514-1.172-1.724l-.038-.029v.046Zm4.563 7.965a.1.1 0 0 1-.053-.047l-3.452-6.034h-.011c-.466-.05-.925-1.412-1-1.843.305.256 1.116 1.17 1.116 1.655a.328.328 0 0 1-.026.136v.01l3.45 6.034c.01.016.016.034.016.053a.039.039 0 0 1-.015.035.029.029 0 0 1-.025 0Z"/><path fill="#fff" d="M16.816 10.624c-.312.234-1.344 1.392-1.141 1.844l-3.49 5.992c-.026.046-.024.098 0 .116.025.017.079 0 .106-.052l3.487-5.992c.503-.046.992-1.524 1.038-1.908Z"/><path fill="#000" d="M16.804 10.607c-.28.21-1.175 1.194-1.175 1.726a.347.347 0 0 0 .024.136c-.01.015-3.485 5.992-3.485 5.992a.152.152 0 0 0-.021.074.064.064 0 0 0 .031.07c.04.022.098 0 .136-.06l3.485-5.993c.513-.065.994-1.541 1.04-1.921v-.048l-.035.024Zm-4.602 7.954a.025.025 0 0 1-.014-.018v-.016c.001-.02.007-.038.017-.053l3.488-6.005v-.01a.327.327 0 0 1-.025-.136c0-.486.817-1.402 1.12-1.657-.075.432-.537 1.798-1.005 1.839h-.011l-3.493 6.004c-.024.046-.059.063-.077.052Z"/><path fill="#D0232A" d="M16.122 14.948c0 2.061-1.257 3.732-1.812 3.732-.554 0-1.81-1.67-1.81-3.732 0-2.062 1.258-3.733 1.81-3.733.553 0 1.812 1.67 1.812 3.733Z"/><path fill="#000" d="M15.747 12.99a5.304 5.304 0 0 0 0 3.915c.5-1.257.5-2.658 0-3.915ZM12.875 12.99a5.286 5.286 0 0 0 0 3.915c.5-1.257.5-2.658 0-3.915Z"/><path fill="#fff" d="M14.658 14.945c0 .273-.155.497-.348.497-.192 0-.345-.222-.345-.497s.155-.497.345-.497c.191 0 .348.224.348.497Z"/><path fill="#fff" d="M13.963 12.874c0 .84.13 1.536.298 1.65v-3.3c-.168.114-.298.81-.298 1.65ZM14.659 12.874c0-.84-.136-1.536-.3-1.65v3.305c.17-.119.3-.817.3-1.655ZM14.36 15.368v3.3c.168-.115.299-.81.299-1.651 0-.842-.13-1.535-.3-1.65ZM13.963 17.017c0 .841.13 1.536.298 1.65v-3.3c-.168.115-.298.81-.298 1.65Z"/></g></g><defs><filter id="a" width="28.61" height="28.61" x="0" y="0" color-interpolation-filters="sRGB" filterUnits="userSpaceOnUse"><feFlood flood-opacity="0" result="BackgroundImageFix"/><feColorMatrix in="SourceAlpha" result="hardAlpha" values="0 0 0 0 0 0 0 0 0 0 0 0 0 0 0 0 0 0 127 0"/><feOffset/><feGaussianBlur stdDeviation="3"/><feComposite in2="hardAlpha" operator="out"/><feColorMatrix values="0 0 0 0 0 0 0 0 0 0 0 0 0 0 0 0 0 0 0.18 0"/><feBlend in2="BackgroundImageFix" result="effect1_dropShadow_513_124"/><feBlend in="SourceGraphic" in2="effect1_dropShadow_513_124" result="shape"/></filter></defs></svg>