<svg xmlns="http://www.w3.org/2000/svg" width="53" height="53" fill="none"><path stroke="#04BBF2" stroke-linecap="round" stroke-linejoin="round" stroke-width="2" d="M25.282 37.25h12.92M25.282 26.625h9.996M37.376 28.89a2.098 2.098 0 1 0 0-4.197 2.098 2.098 0 0 0 0 4.197ZM25.282 15.97h12.92M40.3 18.07a2.098 2.098 0 1 0 0-4.197 2.098 2.098 0 0 0 0 4.196ZM40.3 39.349a2.098 2.098 0 1 0 0-4.197 2.098 2.098 0 0 0 0 4.197Z"/><path stroke="#10385B" stroke-linecap="round" stroke-linejoin="round" stroke-width="2" d="M28.603 10.785v31.704c0 2.643-2.643 4.46-5.122 3.519a8.58 8.58 0 0 1-1.949-1.041c-3.023-2.181-2.974-5.237-2.957-5.617-3.635-.15-6.807-2.099-8.013-4.924-1.14-2.676-.33-5.683 2.065-7.732-2.792-2.676-3.403-6.377-1.619-9.3 2.082-3.404 6.443-4.148 7.005-4.23.05-.413.529-3.37 3.783-5.171.76-.43 1.537-.71 2.28-.892 2.313-.562 4.51 1.305 4.51 3.684h.017ZM12.627 26.693h5.7"/><path stroke="#10385B" stroke-linecap="round" stroke-linejoin="round" stroke-width="2" d="M20.326 18.799a3.392 3.392 0 0 0 .61-3.503 3.436 3.436 0 0 0-2.923-2.148M18.575 39.35c-.05-.182-.661-2.395.826-4.163 1.156-1.371 2.775-1.52 3.089-1.537"/></svg>