<svg xmlns="http://www.w3.org/2000/svg" width="29" height="29" fill="none"><g filter="url(#a)"><path fill="#F0F0F0" d="M14.5 23a8.5 8.5 0 1 0 0-17 8.5 8.5 0 0 0 0 17Z"/><path fill="#0052B4" d="M7.507 9.122A8.713 8.713 0 0 0 6 12.164h4.549L7.507 9.122ZM22.89 12.166a8.714 8.714 0 0 0-1.508-3.042l-3.042 3.042h4.55ZM6.003 16.727a8.714 8.714 0 0 0 1.506 3.042l3.043-3.042h-4.55ZM19.77 7.507A8.713 8.713 0 0 0 16.728 6v4.549l3.042-3.042ZM9.122 21.383a8.713 8.713 0 0 0 3.042 1.507v-4.549l-3.042 3.042ZM12.165 6.002A8.714 8.714 0 0 0 9.123 7.51l3.042 3.042V6.002ZM16.727 22.89a8.714 8.714 0 0 0 3.042-1.508l-3.042-3.042v4.55ZM18.34 16.727l3.042 3.042a8.714 8.714 0 0 0 1.507-3.042H18.34Z"/><path fill="#D80027" d="M22.926 13.392h-7.318v-7.32a8.577 8.577 0 0 0-2.218 0v7.32H6.072a8.577 8.577 0 0 0 0 2.217h7.32v7.319a8.573 8.573 0 0 0 2.217 0v-7.32h7.319a8.574 8.574 0 0 0 0-2.218l-.002.002Z"/><path fill="#D80027" d="m16.716 16.716 3.793 3.793a8.57 8.57 0 0 0 .5-.546l-3.247-3.247h-1.046ZM12.282 16.716 8.49 20.51c.174.174.355.34.545.499l3.247-3.247v-1.045ZM12.282 12.282 8.488 8.49a8.4 8.4 0 0 0-.499.545l3.247 3.247h1.046ZM16.716 12.282l3.793-3.793a8.393 8.393 0 0 0-.546-.499l-3.247 3.247v1.045Z"/></g><defs><filter id="a" width="29" height="29" x="0" y="0" color-interpolation-filters="sRGB" filterUnits="userSpaceOnUse"><feFlood flood-opacity="0" result="BackgroundImageFix"/><feColorMatrix in="SourceAlpha" result="hardAlpha" values="0 0 0 0 0 0 0 0 0 0 0 0 0 0 0 0 0 0 127 0"/><feOffset/><feGaussianBlur stdDeviation="3"/><feComposite in2="hardAlpha" operator="out"/><feColorMatrix values="0 0 0 0 0 0 0 0 0 0 0 0 0 0 0 0 0 0 0.18 0"/><feBlend in2="BackgroundImageFix" result="effect1_dropShadow_513_107"/><feBlend in="SourceGraphic" in2="effect1_dropShadow_513_107" result="shape"/></filter></defs></svg>