<svg xmlns="http://www.w3.org/2000/svg" width="29" height="29" fill="none"><g filter="url(#a)"><path fill="#fff" d="M14.306 22.612a8.305 8.305 0 1 0 0-16.61 8.305 8.305 0 0 0 0 16.61Z"/><path fill="#EFECEC" d="M22.105 11.36H16.66c.236 1.946.238 3.913.005 5.86h5.453a8.848 8.848 0 0 0-.012-5.86Z"/><path fill="#429945" d="M16.659 11.893h5.446v-.007a8.844 8.844 0 0 0-7.54-5.849c1.352.742 1.748 3.091 2.094 5.856Z"/><path fill="#0B0B0B" d="M14.565 22.575a8.845 8.845 0 0 0 7.547-5.864c0-.009.006-.017.008-.025h-5.456c-.343 2.778-.74 5.144-2.1 5.889Z"/><path fill="#EFEFEF" d="M6 14.308c0 .991.167 1.976.493 2.912h11.694a24.436 24.436 0 0 0-.004-5.86H6.505A8.82 8.82 0 0 0 6 14.308Z"/><path fill="#49A948" d="M6.507 11.885v.008h11.677c-.348-2.764-1.198-5.114-2.551-5.856a8.84 8.84 0 0 0-9.126 5.848Z"/><path fill="#151515" d="M18.188 16.684H6.493l.008.024a8.842 8.842 0 0 0 9.132 5.863c1.359-.742 2.21-3.108 2.555-5.887Z"/><path fill="#E73B36" d="M6 14.306a8.28 8.28 0 0 0 5.447 7.629V6.677A8.28 8.28 0 0 0 6 14.306Z"/></g><defs><filter id="a" width="28.611" height="28.612" x="0" y="0" color-interpolation-filters="sRGB" filterUnits="userSpaceOnUse"><feFlood flood-opacity="0" result="BackgroundImageFix"/><feColorMatrix in="SourceAlpha" result="hardAlpha" values="0 0 0 0 0 0 0 0 0 0 0 0 0 0 0 0 0 0 127 0"/><feOffset/><feGaussianBlur stdDeviation="3"/><feComposite in2="hardAlpha" operator="out"/><feColorMatrix values="0 0 0 0 0 0 0 0 0 0 0 0 0 0 0 0 0 0 0.18 0"/><feBlend in2="BackgroundImageFix" result="effect1_dropShadow_513_98"/><feBlend in="SourceGraphic" in2="effect1_dropShadow_513_98" result="shape"/></filter></defs></svg>