<svg xmlns="http://www.w3.org/2000/svg" width="29" height="29" fill="none"><g filter="url(#a)"><path fill="#F0F0F0" d="M14.305 22.61a8.305 8.305 0 1 0 0-16.61 8.305 8.305 0 0 0 0 16.61Z"/><path fill="#751A46" d="M22.2 14.51A8.1 8.1 0 0 0 9.788 7.658l1.776.754L9.17 9.43l2.395 1.017-2.395 1.017 2.394 1.011-2.395 1.018 2.395 1.017-2.395 1.017 2.395 1.018-2.395 1.017 2.395 1.017-2.395 1.018 2.395 1.017-1.775.754a8.102 8.102 0 0 0 12.41-6.858v.002Z"/></g><defs><filter id="a" width="28.61" height="28.61" x="0" y="0" color-interpolation-filters="sRGB" filterUnits="userSpaceOnUse"><feFlood flood-opacity="0" result="BackgroundImageFix"/><feColorMatrix in="SourceAlpha" result="hardAlpha" values="0 0 0 0 0 0 0 0 0 0 0 0 0 0 0 0 0 0 127 0"/><feOffset/><feGaussianBlur stdDeviation="3"/><feComposite in2="hardAlpha" operator="out"/><feColorMatrix values="0 0 0 0 0 0 0 0 0 0 0 0 0 0 0 0 0 0 0.18 0"/><feBlend in2="BackgroundImageFix" result="effect1_dropShadow_513_95"/><feBlend in="SourceGraphic" in2="effect1_dropShadow_513_95" result="shape"/></filter></defs></svg>