<svg xmlns="http://www.w3.org/2000/svg" width="65" height="65" fill="none"><path stroke="#04BBF2" stroke-linecap="round" stroke-linejoin="round" stroke-miterlimit="10" stroke-width="2" d="M47.874 25.39c0-8.75-7.25-15.75-16.124-15.376C23.625 10.264 17 17.14 17 25.39c0 5.75 3.25 10.75 7.875 13.5a3.158 3.158 0 0 1 1.875 2.875v1.625c0 1.25.875 2.125 2.125 2.125h7.25c1.125 0 2.125-1 2.125-2.125v-1.625c0-1.25.75-2.375 1.875-3a15.344 15.344 0 0 0 7.75-13.375Z"/><path stroke="#fff" stroke-linecap="round" stroke-linejoin="round" stroke-miterlimit="10" stroke-width="2" d="M37.323 55h-9.396c-.53 0-.927-.417-.927-.972v-3.056c0-.555.397-.972.927-.972h9.396c.53 0 .927.417.927.972v3.056c0 .555-.397.972-.927.972Z"/></svg>