<svg xmlns="http://www.w3.org/2000/svg" width="29" height="29" fill="none"><g filter="url(#a)"><path fill="#F0F0F0" d="M14.305 22.61a8.305 8.305 0 1 0 0-16.61 8.305 8.305 0 0 0 0 16.61Z"/><path fill="#FF9811" d="M14.414 6.003a8.414 8.414 0 0 0-7.581 4.756h15.16a8.414 8.414 0 0 0-7.58-4.756Z"/><path fill="#6DA544" d="M14.414 22.831a8.414 8.414 0 0 0 7.58-4.755H6.832a8.414 8.414 0 0 0 7.58 4.755Z"/><path fill="#0052B4" d="M14.414 17.345a2.927 2.927 0 1 0 0-5.854 2.927 2.927 0 0 0 0 5.854Z"/><path fill="#F0F0F0" d="M14.414 16.246a1.829 1.829 0 1 0 0-3.658 1.829 1.829 0 0 0 0 3.658Z"/><path fill="#0052B4" d="m14.414 12.16.564 1.28 1.39-.15-.826 1.128.826 1.129-1.39-.152-.564 1.28-.564-1.28-1.39.152.826-1.129-.826-1.129 1.39.152.564-1.28Z"/></g><defs><filter id="a" width="28.61" height="28.831" x="0" y="0" color-interpolation-filters="sRGB" filterUnits="userSpaceOnUse"><feFlood flood-opacity="0" result="BackgroundImageFix"/><feColorMatrix in="SourceAlpha" result="hardAlpha" values="0 0 0 0 0 0 0 0 0 0 0 0 0 0 0 0 0 0 127 0"/><feOffset/><feGaussianBlur stdDeviation="3"/><feComposite in2="hardAlpha" operator="out"/><feColorMatrix values="0 0 0 0 0 0 0 0 0 0 0 0 0 0 0 0 0 0 0.18 0"/><feBlend in2="BackgroundImageFix" result="effect1_dropShadow_513_88"/><feBlend in="SourceGraphic" in2="effect1_dropShadow_513_88" result="shape"/></filter></defs></svg>