<svg xmlns="http://www.w3.org/2000/svg" width="29" height="29" fill="none"><g clip-path="url(#a)" filter="url(#b)"><g fill-rule="evenodd" clip-path="url(#c)" clip-rule="evenodd"><path fill="#006C35" d="M1.75 6h25.496v16.997H1.75V6Z"/><path fill="#fff" d="M8.175 10.818c-.027.398-.065 1.097.275 1.169.407.037.181-.693.329-.823.03-.068.082-.068.085.018v.616c-.003.206.127.26.23.305.11-.01.178-.007.223.096l.048 1.073s.25.068.26-.603c.014-.394-.079-.727-.024-.802 0-.076.096-.079.165-.045.106.076.154.172.318.13.254-.068.405-.191.412-.383a1.749 1.749 0 0 0-.117-.552c.01-.034-.051-.12-.038-.154.045.068.113.065.13 0-.044-.144-.11-.278-.219-.336-.089-.079-.22-.062-.267.103a.891.891 0 0 0 .206.593c.043.093.06.195.05.298-.071.044-.143.024-.205-.038 0 0-.202-.154-.202-.185.055-.343.014-.38-.017-.476-.02-.13-.082-.172-.134-.26-.051-.056-.116-.056-.15 0-.09.153-.048.482.017.63.048.137.116.223.082.223-.028.075-.082.058-.123-.031a2.097 2.097 0 0 1-.072-.58c-.018-.154-.035-.48-.138-.562-.061-.082-.154-.04-.185.035-.008.148-.005.297.01.445.07.24.09.46.124.71.01.335-.195.147-.185-.02.048-.217.034-.56-.007-.645-.034-.086-.072-.106-.15-.093-.07-.007-.23.172-.275.473 0 0-.04.154-.058.288-.024.154-.123.264-.195-.02-.062-.206-.1-.717-.203-.597Z"/><path fill="#fff" d="m9.286 12.45-1.063.51c.01-.24.504-.679.84-.686.22.007.164.086.223.172v.003Z"/><path fill="#fff" d="M9.1 12.782c-.561 1.443 1.31 1.645 1.519.058.02-.065.103-.13.113-.024-.045 1.44-1.446 1.535-1.686 1.083-.058-.103-.076-.343-.082-.487-.035-.28-.185-.171-.206.11-.024.154-.02.199-.02.35.075 1.13 1.884.644 2.179-.292.154-.517-.027-.901.058-.901.178.195.432.027.487-.041.024-.034.082-.055.123-.01.137.102.387.051.439-.124.027-.175.051-.353.058-.538-.113.035-.199.059-.206.103l-.024.158c-.01.048-.11.051-.113-.014-.044-.195-.222-.223-.332.082-.072.062-.206.069-.22-.017.018-.206-.064-.233-.229-.137l-.161-1.2c.069 0 .134.048.195-.03-.068-.216-.216-.651-.294-.686-.042-.048-.072-.017-.124-.006-.089.027-.171.102-.144.25l.274 1.72c.014.072-.048.171-.126.161-.134-.092-.168-.274-.394-.267-.168 0-.357.181-.377.356a.783.783 0 0 0 0 .408c.113.137.253.127.377.092.099-.04.181-.14.219-.116.024.03.003.36-.476.617-.288.13-.521.157-.645-.08-.075-.146.007-.708-.181-.582v.004Z"/><path fill="#fff" d="M11.476 11.312c.113-.038.644-.651.644-.651l-.079-.062c-.03-.027-.027-.051 0-.079.13-.075.09-.246.02-.322a.32.32 0 0 0-.287 0c-.093.093-.113.233-.041.322.068.035.143.103.095.144-.219.233-.815.634-.747.651.014.018.384.018.395 0v-.003ZM8.258 13.47c-.2.319-.216.795-.103.935.055.069.15.096.223.076.126-.055.181-.309.15-.401-.04-.069-.075-.076-.116-.02-.09.178-.127.054-.134-.045a2.306 2.306 0 0 1 .024-.504c.024-.14 0-.1-.044-.041Zm8.536-.514c-.192-.415-.46-.826-.545-.984a18.53 18.53 0 0 0-.822-1.196c-.206-.246.339.103-.069-.387-.154-.137-.164-.14-.295-.25-.065-.048-.222-.13-.25.007a.807.807 0 0 0 .014.294c.014.069.113.182.165.25a18.49 18.49 0 0 1 1.785 2.872c.089-.04.069-.534.017-.606Z"/><path fill="#fff" d="M15.948 14.351c-.038.045.092.226.264.226.287-.034.538-.195.77-.617.062-.102.172-.308.175-.476.024-.96-.048-1.706-.192-2.399a.475.475 0 0 1 .01-.171c.018-.02.08 0 .114-.051.048-.052-.13-.466-.23-.624-.038-.072-.051-.12-.11.007-.065.102-.102.284-.102.452.137.946.181 1.775.27 2.718.007.092-.006.226-.068.277-.25.28-.558.505-.901.658Zm3.865-.003c-.205.116-.205.253-.037.26.284-.034.623-.058.856-.411.062-.1.137-.367.14-.528.021-.96-.013-1.679-.157-2.371-.007-.069-.038-.223-.027-.243.02-.048.113.003.147-.052.048-.048-.24-.421-.343-.582-.037-.069-.051-.117-.11.01-.064.103-.085.288-.061.449.154 1.028.267 1.799.288 2.707-.01.09-.014.137-.055.243-.09.117-.189.26-.284.33-.093.068-.292.136-.357.188Z"/><path fill="#fff" d="M19.967 13.426V12.8a1.133 1.133 0 0 0-.102-.452c-.062-.137-.024-.244-.052-.39-.027-.145-.02-.364-.061-.536-.014-.068-.049-.28-.035-.301.014-.048.079 0 .11-.055.048-.051-.165-.6-.27-.754-.039-.068-.107-.048-.196.069-.079.072-.048.243-.017.404.205 1.073.356 2.046.325 3.064-.01.089.302-.257.298-.422Zm-1.518-1.33c-.127 0-.397-.253-.48-.397a.266.266 0 0 1 .018-.212c.048-.035.123-.069.178-.035 0 0 .055.082.044.093.069.034.103.014.11-.017.004-.048-.024-.08-.024-.137.034-.148.206-.172.267-.076.048.059.066.182.072.268 0 .04-.068-.01-.11 0-.037.013-.047.058-.05.099-.008.11-.021.284-.025.411v.004Zm-2.385 1.598c.034-.33-.01-.909-.014-1.1-.013-.456-.089-1.337-.123-1.481-.041-.277.113.03.093-.13-.052-.274-.206-.466-.384-.72-.058-.079-.055-.096-.148.02-.095.227-.01.381.014.556.13.572.206 1.096.24 1.617.038.542.043 1.086.014 1.628.1.007.257-.157.308-.39Z"/><path fill="#fff" d="M20.41 13.17c-.23-.381-.573-.796-.665-.95-.307-.43-.63-.85-.967-1.258-.284-.298.13-.048-.055-.277-.157-.172-.205-.226-.335-.33-.069-.044-.11-.126-.13.014-.01.124-.018.268-.01.374 0 .058.06.165.112.23.686.846 1.44 1.713 2.046 2.8.086-.049.058-.535 0-.604h.004Z"/><path fill="#006C35" d="M10.07 12.463c-.017.03-.054.068-.04.103.027.034.047.044.088.048.035 0 .09.006.1-.014a.11.11 0 0 0 .017-.11c-.034-.096-.144-.061-.165-.027Z"/><path fill="#fff" d="M17.76 18.039c.305.01.504.014.775.045l.315-.035c.353-.034.37.504.37.504-.003.315-.127.329-.28.363-.09.014-.138-.051-.182-.12a.468.468 0 0 1-.237.014c-.127-.007-.253-.007-.377-.017-.137-.01-.209.017-.342.003-.031.045-.069.103-.148.086-.068-.007-.15-.202-.127-.346.048-.106.035-.072.031-.12-1.247-.03-2.501-.086-3.725-.069-.96 0-1.902.042-2.844.083-.504-.007-.891-.09-1.155-.48.024 0 1.285.075 1.652.051.685-.01 1.305-.065 2.001-.085 1.37.024 2.725.024 4.095.12-.13-.09-.137-.302.069-.353.014-.01.024.102.055.102.157-.01.089.206.055.254Zm-5.496-7.55c-.206.593.116 1.241.342 1.18.165.068.268-.244.336-.583.045-.096.08-.106.103-.058-.007.452.034.551.15.688a.377.377 0 0 0 .49.01l.203-.205c.045-.045.103-.048.168-.007.062.059.051.154.185.223.11.044.35.01.404-.086.072-.127.093-.171.127-.219.052-.069.14-.041.14-.017-.006.038-.058.079-.023.147.061.048.079.017.116.007.13-.062.23-.35.23-.35.003-.102-.055-.095-.093-.075l-.102.072c-.069.01-.192.052-.254-.044-.062-.114-.065-.275-.113-.391 0-.007-.082-.182-.004-.192.038.007.124.027.137-.041.042-.069-.089-.264-.178-.363-.075-.083-.185-.093-.288-.007-.068.068-.061.137-.075.209a.33.33 0 0 0 .069.288c.072.14.205.322.16.582 0 0-.078.12-.212.103-.055-.014-.144-.034-.192-.39-.034-.271.007-.648-.106-.823-.041-.11-.069-.213-.171-.027-.028.068-.144.178-.062.404.078.199.102.416.069.627-.049.072-.059.1-.124.171-.085.093-.181.069-.253.035-.069-.045-.124-.069-.155-.216.007-.233.018-.614-.024-.696-.061-.123-.164-.079-.209-.041-.198.22-.332.492-.383.785-.059.188-.12.137-.165.058-.106-.103-.113-.888-.243-.757Z"/><path fill="#fff" d="M12.887 11.78c.096-.068.052-.112.192.028.181.318.287.674.309 1.039-.01.085.051.137.079.12.013-.2.503-.48.949-.521.068-.014.034-.144.044-.213-.027-.247.137-.473.374-.49.315.048.421.216.428.473-.034.497-.552.583-.843.617-.044.02-.062.041 0 .065l1.217.003.062.035c.006.034-.018.007-.07.085a.937.937 0 0 0-.119.384 5.929 5.929 0 0 1-1.117.213c-.13.068-.195.157-.171.257.044.113.339.222.339.23.055.034.12.116-.017.28-.593-.024-1.052-.277-1.21-.634-.048-.034-.103 0-.134.048a1.876 1.876 0 0 1-.853.71c-.236.058-.476-.035-.59-.189-.075-.089-.071-.185-.102-.205-.127.054-1.22.52-1.08.305.264-.288.727-.497 1.131-.778.034-.093.086-.412.247-.514.007 0-.028.185-.024.264 0 .065-.004.089.01.072.028-.018.521-.405.559-.525.048-.068.013-.24.013-.247-.089-.24-.219-.257-.267-.377-.044-.157-.024-.335.065-.387.08-.072.172-.065.26.014a.8.8 0 0 1 .217.394c-.018.051-.13-.034-.172-.007a.506.506 0 0 1 .127.257c.069.274.045.377-.017.555-.22.46-.5.6-.747.768-.007.003-.01.12.082.182.034.034.161.048.309 0 .32-.177.58-.447.743-.775.045-.247-.017-.507-.082-.733a8.622 8.622 0 0 1-.206-.549c-.007-.137.004-.185.069-.253h-.004Zm-3.18-1.28c.137.064.401.034.39-.19l-.006-.106c-.027-.068-.106-.05-.123.021-.007.02.01.058-.01.069-.014.01-.059.003-.055-.059 0-.02-.014-.04-.024-.054-.01-.004-.014-.007-.031-.007-.02 0-.017.007-.031.024l-.01.051c0 .024-.01.03-.028.034-.017 0-.014 0-.027-.007-.01-.01-.02-.013-.02-.03l-.008-.055a.069.069 0 0 0-.034-.02c-.079 0-.082.088-.079.123-.007.003-.01.16.096.205Z"/><path fill="#fff" d="M13.806 12.233c.137.069.473.028.39-.188l-.006-.103c-.028-.068-.103-.051-.124.017-.003.02.01.059-.01.069-.01.014-.055.007-.055-.055 0-.02-.014-.041-.024-.055-.007-.007-.014-.007-.03-.007-.018 0-.018.004-.028.02l-.01.052c-.004.024-.014.035-.028.035-.02 0-.014 0-.03-.007-.008-.01-.021-.014-.021-.031s0-.045-.007-.055c-.007-.01-.02-.014-.034-.017-.076 0-.083.086-.08.12-.003.007-.006.16.097.205Zm2.392-.72c.137.07.4.039.39-.184l-.006-.107c-.028-.068-.107-.05-.124.018-.007.024.01.058-.01.068-.014.014-.058.007-.055-.055 0-.02-.017-.04-.024-.054-.01-.004-.014-.007-.034-.007-.017 0-.017.007-.028.024l-.01.051c0 .02-.01.03-.027.034-.017 0-.014 0-.028-.01-.01-.007-.02-.014-.02-.027a.161.161 0 0 0-.01-.059c-.007-.01-.018-.013-.035-.017-.075 0-.079.09-.075.12-.007.007-.01.165.096.206Zm1.233 1.807c-.24.274-.133.726-.078.822.082.165.144.268.301.346.144.103.254.038.316-.034.143-.147.143-.528.212-.603.048-.137.164-.113.223-.051a.549.549 0 0 0 .205.174c.134.117.292.137.45.035a.532.532 0 0 0 .24-.295c.068-.189.033-1.052.016-1.563-.003-.04-.137-.706-.137-.713 0-.006-.02-.339-.034-.418 0-.03-.01-.04.024-.034.034.027.041.03.062.041.034.007.068-.055.048-.113l-.336-.617c-.024-.024-.059-.051-.103.01a.24.24 0 0 0-.082.182c.01.147.034.295.044.442l.137.747c.041.535.052.97.093 1.508-.007.223-.076.422-.144.446 0 0-.1.061-.165 0-.051-.024-.246-.33-.246-.33-.103-.092-.165-.068-.24 0-.192.19-.281.546-.415.789-.034.055-.133.103-.24-.004-.274-.377-.113-.904-.147-.767h-.003Zm-1.172-3.115c.127.051.213.308.186.431-.024.151-.093.32-.138.295-.054-.017.035-.15-.017-.291-.027-.09-.198-.257-.181-.305-.035-.103.075-.147.15-.13Z"/><path fill="#fff" d="M17.84 13.471c.023-.308-.021-.494-.028-.672a29.201 29.201 0 0 0-.24-1.679c-.051-.257.189-.034.161-.185-.082-.188-.284-.463-.35-.624-.037-.068-.023-.133-.11-.02-.073.204-.099.422-.075.637.206 1.073.415 1.964.38 2.985.1 0 .213-.223.261-.445v.003Zm2.138-2.834c.116.058.181.377.171.466-.024.168-.086.343-.13.322-.045-.02.01-.247-.014-.315-.024-.1-.178-.278-.164-.332-.031-.11.068-.158.137-.138v-.003Zm-8.489 2.255c.11.044.172.274.161.343-.02.123-.079.253-.12.24-.044-.018.007-.182-.013-.234-.01-.126-.161-.191-.158-.243-.027-.103.065-.12.13-.103v-.003Z"/><path fill="#006C35" d="M14.131 13.245c.137.007.21.12.08.164-.131.045-.258.08-.258.268.048.263-.068.17-.137.137-.079-.059-.305-.196-.336-.497-.003-.069.052-.13.14-.13.138.034.337.04.508.058h.003Z"/><path fill="#fff" d="M8.57 10.13c.16.047.17.284.157.356-.02.127-.079.26-.12.243-.044-.013 0-.185-.02-.24-.024-.075-.161-.212-.144-.253-.035-.082.061-.12.127-.103v-.003Zm3.183 1.117c-.123.068-.171.267-.096.383.072.103.185.066.202.066.12.013.192-.23.192-.23s.004-.068-.137.062c-.062.01-.068-.01-.085-.045a.298.298 0 0 1 .02-.192c.02-.058-.027-.085-.096-.044Zm.925-1.21c-.058.045-.185.171-.188.319 0 .082-.017.082.034.137.041.055.082.051.161.01a.172.172 0 0 0 .076-.113c.02-.096-.1.045-.113-.062-.028-.096.047-.137.12-.233 0-.065 0-.11-.086-.058h-.004Zm.75.137a1.95 1.95 0 0 0-.054.367c-.02.092.096.13.15.01.08-.216.08-.308.087-.4-.025-.138-.12-.138-.182.02v.003Zm4.713 2.396c.014-.018.665-.48.665-.48.065-.02.051.24.02.24a2.58 2.58 0 0 1-.685.476c-.034.02-.065-.178 0-.24v.003Zm.59-.004c.112.055.16.39.147.48.003.178-.11.319-.155.295-.048-.021.004-.22-.017-.288-.024-.1-.123-.285-.106-.336-.034-.113.062-.171.13-.15Zm-3.853 1.44a.774.774 0 0 1 .185-.162c.066-.034.127.024.124.02.01.066-.041.124-.024.21.014.034.024.072.089.058a.493.493 0 0 1 .301-.092c.08.007.08.137.031.14-.191.041-.274.093-.41.144-.066.038-.12-.01-.12-.014 0-.003-.035-.037-.011-.123.003-.069-.024-.103-.079-.096-.044.02-.082.034-.103-.014-.01-.034-.01-.051.017-.072Zm4.534.178c.028.034.048.068 0 .126l-.123.103c-.024.041-.034.096.03.113.12.034.402-.147.402-.15.044-.035.03-.1.024-.1-.024-.03-.086-.014-.124-.017-.02 0-.082-.01-.055-.065.028-.034.035-.055.052-.1.02-.04.003-.068-.065-.092-.069-.01-.096-.004-.172 0-.044.01-.058.027-.068.079.007.075.051.072.103.103h-.004Z"/><path fill="#006C35" d="M14.902 12.299c-.017.034-.078.03-.137 0-.058-.031-.085-.086-.068-.117.017-.03.079-.03.137 0 .058.031.086.086.068.117Zm-2.957-1.775c-.034.01-.079-.02-.1-.069-.02-.048-.01-.085.025-.096.034-.01.078.024.099.069.02.044.01.089-.024.096ZM17.795 18.45c.308.014.603.004.911.02.059.045.017.165-.02.155l-.26-.007c0-.1-.258-.082-.247.004-.137.017-.26-.004-.398-.01-.041-.052-.034-.141.014-.162Z"/></g></g><defs><clipPath id="a"><path fill="#fff" d="M0 0h29v29H0z"/></clipPath><clipPath id="c"><rect width="17" height="17" x="6" y="6" fill="#fff" rx="8.5"/></clipPath><filter id="b" width="29" height="29" x="0" y="0" color-interpolation-filters="sRGB" filterUnits="userSpaceOnUse"><feFlood flood-opacity="0" result="BackgroundImageFix"/><feColorMatrix in="SourceAlpha" result="hardAlpha" values="0 0 0 0 0 0 0 0 0 0 0 0 0 0 0 0 0 0 127 0"/><feOffset/><feGaussianBlur stdDeviation="3"/><feComposite in2="hardAlpha" operator="out"/><feColorMatrix values="0 0 0 0 0 0 0 0 0 0 0 0 0 0 0 0 0 0 0.18 0"/><feBlend in2="BackgroundImageFix" result="effect1_dropShadow_5564_319"/><feBlend in="SourceGraphic" in2="effect1_dropShadow_5564_319" result="shape"/></filter></defs></svg>