<svg xmlns="http://www.w3.org/2000/svg" width="65" height="65" fill="none"><path stroke="#fff" stroke-linecap="round" stroke-linejoin="round" stroke-miterlimit="10" stroke-width="2" d="M32.412 35.187c-1.232 2.817-4.05 4.93-7.395 4.93-4.402 0-8.1-3.697-8.1-8.1 0-4.401 3.698-8.099 8.1-8.099 3.345 0 6.163 1.937 7.395 4.754"/><path stroke="#fff" stroke-linecap="round" stroke-linejoin="round" stroke-miterlimit="10" stroke-width="2" d="M43.681 35.89c-1.76 8.628-9.508 15.32-18.664 15.32C14.452 51.21 6 42.58 6 32.192 6 21.804 14.452 13 24.84 13c9.157 0 16.904 6.515 18.665 15.143"/><path stroke="#04BBF2" stroke-linecap="round" stroke-linejoin="round" stroke-miterlimit="10" stroke-width="2" d="M24.84 32.018h29.758M54.598 32.015h-7.571l4.402-3.17H59l-4.402 3.17ZM54.598 32.018h-7.571l4.402 3.345H59l-4.402-3.345Z"/></svg>