<svg xmlns="http://www.w3.org/2000/svg" width="14" height="14"><path fill="#10385b" d="M7 0c1.9 0 2.139.007 2.885.042a5.157 5.157 0 0 1 1.7.326 3.413 3.413 0 0 1 1.24.807 3.436 3.436 0 0 1 .807 1.24 5.171 5.171 0 0 1 .325 1.7C13.991 4.861 14 5.1 14 7s-.007 2.139-.042 2.885a5.175 5.175 0 0 1-.326 1.7 3.574 3.574 0 0 1-2.047 2.047 5.171 5.171 0 0 1-1.7.326C9.139 13.991 8.9 14 7 14s-2.139-.007-2.885-.042a5.175 5.175 0 0 1-1.7-.326 3.574 3.574 0 0 1-2.047-2.047 5.153 5.153 0 0 1-.326-1.7C.009 9.139 0 8.9 0 7s.007-2.139.042-2.885a5.153 5.153 0 0 1 .326-1.7A3.574 3.574 0 0 1 2.415.368a5.153 5.153 0 0 1 1.7-.325C4.861.009 5.1 0 7 0Zm0 3.5A3.5 3.5 0 1 0 10.5 7 3.5 3.5 0 0 0 7 3.5Zm4.55-.175a.875.875 0 1 0-.875.875.875.875 0 0 0 .875-.875ZM7 4.9A2.1 2.1 0 1 1 4.9 7 2.1 2.1 0 0 1 7 4.9Z"/></svg>