<svg xmlns="http://www.w3.org/2000/svg" width="15" height="13.971"><path fill="#10385b" d="M2.206 9.559v1.471a1.471 1.471 0 0 0 1.36 1.47h2.316v1.471H3.676A2.941 2.941 0 0 1 .735 11.03V9.559Zm9.559-3.676L15 13.971h-1.585l-.883-2.206H9.525l-.882 2.206H7.06l3.235-8.088ZM11.029 8l-.917 2.29h1.832ZM4.412 0v1.471h2.941v5.147H4.412v2.206H2.941V6.618H0V1.471h2.941V0Zm6.618.735a2.941 2.941 0 0 1 2.941 2.941v1.471H12.5V3.676a1.471 1.471 0 0 0-1.471-1.471H8.824V.735ZM2.941 2.941h-1.47v2.206h1.47Zm2.941 0h-1.47v2.206h1.47Z"/></svg>