<svg xmlns="http://www.w3.org/2000/svg" width="16.31" height="13.261"><path fill="#10385b" d="M16.309 1.575a6.708 6.708 0 0 1-1.922.526A3.357 3.357 0 0 0 15.859.25a6.687 6.687 0 0 1-2.125.812 3.346 3.346 0 0 0-5.702 3.05 9.5 9.5 0 0 1-6.9-3.5 3.351 3.351 0 0 0 1.039 4.473 3.335 3.335 0 0 1-1.515-.418v.045A3.348 3.348 0 0 0 3.34 7.993a3.368 3.368 0 0 1-1.512.058 3.348 3.348 0 0 0 3.126 2.324A6.716 6.716 0 0 1 0 11.761a9.465 9.465 0 0 0 5.129 1.5A9.456 9.456 0 0 0 14.65 3.74c0-.144 0-.29-.01-.432a6.8 6.8 0 0 0 1.67-1.732Z"/></svg>